<?xml version="1.0" standalone="no"?>
<!DOCTYPE svg PUBLIC "-//W3C//DTD SVG 20010904//EN"
 "http://www.w3.org/TR/2001/REC-SVG-20010904/DTD/svg10.dtd">
<svg version="1.0" xmlns="http://www.w3.org/2000/svg"
 width="275.000000pt" height="183.000000pt" viewBox="0 0 275.000000 183.000000"
 preserveAspectRatio="xMidYMid meet">

<g transform="translate(0.000000,183.000000) scale(0.100000,-0.100000)"
fill="#000000" stroke="none">
<path d="M1449 1647 c-113 -78 -164 -123 -219 -193 -60 -74 -98 -153 -106
-220 l-6 -49 35 70 c65 126 178 245 313 327 44 27 53 37 61 75 6 23 7 43 4 43
-3 0 -40 -24 -82 -53z"/>
<path d="M1602 1611 c-239 -144 -425 -326 -471 -460 -19 -59 -12 -56 38 15 89
127 225 235 387 307 34 15 66 27 70 27 5 0 21 36 35 80 15 44 25 80 24 80 -1
0 -38 -22 -83 -49z"/>
<path d="M959 1547 c-46 -35 -50 -88 -10 -128 41 -40 91 -40 132 0 38 38 38
74 0 112 -23 22 -39 29 -68 29 -21 0 -45 -6 -54 -13z"/>
<path d="M1586 1439 c-212 -77 -414 -257 -461 -409 -6 -18 4 -10 32 25 125
158 317 272 568 336 61 15 103 28 95 29 -9 0 -48 11 -87 23 l-71 24 -76 -28z"/>
<path d="M926 1319 c62 -66 102 -133 131 -219 l22 -65 1 95 c0 84 10 140 36
204 6 16 4 17 -14 7 -11 -6 -42 -11 -69 -11 -43 1 -68 7 -138 35 -12 5 1 -15
31 -46z"/>
<path d="M1430 1232 c-158 -89 -245 -163 -288 -248 -18 -36 -13 -33 57 36 53
53 100 88 156 117 86 44 220 93 254 93 37 0 22 17 -30 33 -28 10 -54 17 -58
17 -3 0 -44 -22 -91 -48z"/>
<path d="M565 360 c0 -54 21 -71 27 -22 l4 27 14 -27 c7 -16 19 -28 27 -28 11
0 11 6 -3 30 -17 28 -17 30 1 50 15 17 16 20 3 20 -9 0 -18 -9 -21 -20 -3 -11
-10 -20 -16 -20 -6 0 -11 9 -11 20 0 11 -6 20 -12 20 -9 0 -13 -17 -13 -50z"/>
<path d="M670 360 c0 -38 4 -50 15 -50 9 0 15 9 15 25 0 18 4 23 15 19 8 -4
15 -1 15 5 0 6 -7 11 -15 11 -8 0 -15 7 -15 16 0 11 6 15 20 11 11 -3 20 -1
20 4 0 5 -16 9 -35 9 l-35 0 0 -50z"/>
<path d="M762 360 c-2 -30 1 -50 7 -50 6 0 11 17 12 38 l1 37 9 -32 c12 -41
24 -42 38 -3 14 41 24 38 19 -5 -3 -24 0 -35 9 -35 9 0 13 16 13 50 0 57 -22
70 -42 23 l-11 -28 -10 28 c-18 46 -42 34 -45 -23z"/>
<path d="M900 360 c0 -36 4 -50 14 -50 9 0 12 8 8 27 -4 21 -2 25 12 20 9 -4
16 -2 16 3 0 6 -7 10 -15 10 -8 0 -15 7 -15 16 0 12 6 15 25 10 14 -4 25 -2
25 4 0 5 -16 10 -35 10 l-35 0 0 -50z"/>
<path d="M991 358 c2 -53 2 -53 8 -13 l7 40 19 -37 c27 -54 45 -49 45 12 0 30
-4 50 -11 50 -7 0 -9 -11 -5 -30 3 -16 2 -30 -3 -30 -5 0 -14 14 -21 30 -21
50 -40 38 -39 -22z"/>
<path d="M1090 400 c0 -5 7 -7 15 -4 12 5 15 -3 15 -40 0 -30 4 -46 13 -46 8
0 11 14 8 46 -3 43 -2 46 18 39 12 -4 21 -2 21 4 0 6 -20 11 -45 11 -25 0 -45
-4 -45 -10z"/>
<path d="M1200 360 c0 -36 4 -50 14 -50 9 0 12 8 8 27 -4 21 -2 25 12 20 9 -4
16 -2 16 3 0 6 -7 10 -15 10 -8 0 -15 7 -15 16 0 12 6 15 25 10 14 -4 25 -2
25 4 0 5 -16 10 -35 10 l-35 0 0 -50z"/>
<path d="M1290 360 c0 -36 4 -50 14 -50 9 0 12 7 9 20 -7 27 11 25 30 -2 8
-13 18 -20 22 -16 4 4 2 14 -4 22 -8 10 -9 21 -3 33 15 28 3 43 -34 43 l-34 0
0 -50z m50 20 c0 -11 -7 -20 -15 -20 -8 0 -15 9 -15 20 0 11 7 20 15 20 8 0
15 -9 15 -20z"/>
<path d="M1395 360 c0 -33 4 -50 13 -50 8 0 12 17 12 50 0 33 -4 50 -12 50 -9
0 -13 -17 -13 -50z"/>
<path d="M1470 385 c-6 -14 -14 -36 -20 -50 -6 -16 -6 -25 0 -25 6 0 10 7 10
15 0 8 9 15 20 15 11 0 20 -7 20 -15 0 -8 7 -15 15 -15 12 0 12 6 0 48 -8 26
-15 48 -15 50 0 1 -5 2 -10 2 -6 0 -15 -11 -20 -25z m16 -32 c-10 -10 -19 5
-10 18 6 11 8 11 12 0 2 -7 1 -15 -2 -18z"/>
<path d="M1550 360 c0 -30 4 -50 11 -50 7 0 10 12 7 30 -3 17 -2 30 2 30 3 0
14 -13 23 -30 26 -43 37 -37 37 20 0 28 -4 50 -8 50 -5 0 -7 -13 -4 -30 2 -16
2 -30 -2 -30 -3 0 -12 14 -21 30 -25 48 -45 39 -45 -20z"/>
<path d="M1693 393 c-4 -10 2 -23 16 -35 14 -10 21 -24 17 -33 -3 -9 0 -15 9
-15 23 0 18 47 -6 60 -12 7 -18 18 -15 26 3 8 1 14 -5 14 -5 0 -12 -7 -16 -17z"/>
<path d="M1735 400 c3 -5 8 -10 11 -10 2 0 4 5 4 10 0 6 -5 10 -11 10 -5 0 -7
-4 -4 -10z"/>
<path d="M1782 398 c-23 -23 -9 -88 20 -88 4 0 2 11 -4 25 -8 19 -8 31 0 50
12 26 4 33 -16 13z"/>
<path d="M1828 398 c7 -7 12 -24 12 -38 0 -14 -5 -31 -12 -38 -7 -7 -8 -12 -2
-12 18 0 34 24 34 50 0 26 -16 50 -34 50 -6 0 -5 -5 2 -12z"/>
<path d="M1883 393 c-4 -10 2 -23 16 -35 14 -10 21 -24 17 -33 -3 -9 0 -15 8
-15 26 0 26 31 0 55 -14 13 -23 29 -19 34 3 6 1 11 -5 11 -6 0 -13 -7 -17 -17z"/>
<path d="M1925 400 c3 -5 11 -10 16 -10 6 0 7 5 4 10 -3 6 -11 10 -16 10 -6 0
-7 -4 -4 -10z"/>
<path d="M1970 360 c0 -27 5 -50 10 -50 6 0 10 23 10 50 0 28 -4 50 -10 50 -5
0 -10 -22 -10 -50z"/>
<path d="M2032 360 c-21 -50 -20 -64 3 -33 13 17 51 11 40 -7 -3 -5 1 -10 10
-10 16 0 14 22 -6 78 -13 34 -24 27 -47 -28z m32 5 c3 -9 0 -15 -9 -15 -9 0
-12 6 -9 15 4 8 7 15 9 15 2 0 5 -7 9 -15z"/>
<path d="M2125 360 c0 -38 4 -50 15 -50 12 0 14 11 12 50 -5 67 -27 67 -27 0z"/>
<path d="M2176 325 c-3 -8 -1 -15 4 -15 6 0 10 7 10 15 0 8 -2 15 -4 15 -2 0
-6 -7 -10 -15z"/>
<path d="M725 320 c-3 -5 -1 -10 4 -10 6 0 11 5 11 10 0 6 -2 10 -4 10 -3 0
-8 -4 -11 -10z"/>
<path d="M945 320 c-3 -5 1 -10 9 -10 9 0 16 5 16 10 0 6 -4 10 -9 10 -6 0
-13 -4 -16 -10z"/>
<path d="M1245 320 c-3 -5 1 -10 9 -10 9 0 16 5 16 10 0 6 -4 10 -9 10 -6 0
-13 -4 -16 -10z"/>
<path d="M1690 320 c0 -5 5 -10 11 -10 5 0 7 5 4 10 -3 6 -8 10 -11 10 -2 0
-4 -4 -4 -10z"/>
<path d="M1880 320 c0 -5 5 -10 11 -10 5 0 7 5 4 10 -3 6 -8 10 -11 10 -2 0
-4 -4 -4 -10z"/>
<path d="M700 175 c0 -25 5 -45 10 -45 6 0 10 10 10 23 l1 22 20 -24 c11 -13
22 -21 26 -18 3 4 0 13 -7 22 -10 12 -10 18 0 30 17 20 4 35 -31 35 -28 0 -29
-2 -29 -45z m48 23 c-6 -18 -28 -21 -28 -4 0 9 7 16 16 16 9 0 14 -5 12 -12z"/>
<path d="M790 175 c0 -43 1 -45 30 -45 17 0 30 4 30 9 0 5 -9 7 -20 4 -14 -4
-20 0 -20 11 0 9 7 16 15 16 8 0 15 4 15 10 0 5 -7 7 -17 3 -13 -5 -15 -2 -11
15 4 15 2 22 -8 22 -10 0 -14 -13 -14 -45z"/>
<path d="M835 210 c3 -5 8 -10 11 -10 2 0 4 5 4 10 0 6 -5 10 -11 10 -5 0 -7
-4 -4 -10z"/>
<path d="M870 175 c0 -32 4 -45 14 -45 9 0 12 7 9 20 -4 15 0 20 15 20 20 0
36 25 26 41 -10 17 -22 9 -17 -11 4 -14 0 -20 -12 -20 -12 0 -16 6 -12 20 3
13 0 20 -9 20 -10 0 -14 -13 -14 -45z"/>
<path d="M959 178 c5 -38 9 -43 31 -43 22 0 26 5 31 43 3 23 2 42 -3 42 -4 0
-8 -18 -8 -40 0 -29 -4 -40 -15 -40 -11 0 -15 11 -15 40 0 26 -4 40 -13 40
-10 0 -12 -11 -8 -42z"/>
<path d="M1050 174 c0 -45 0 -45 33 -42 30 3 32 5 32 42 0 22 -5 41 -11 43 -7
2 -11 -4 -10 -13 0 -9 -5 -19 -13 -22 -10 -3 -12 1 -8 17 3 14 0 21 -9 21 -10
0 -14 -13 -14 -46z m50 -19 c0 -8 -7 -15 -15 -15 -8 0 -15 7 -15 15 0 8 7 15
15 15 8 0 15 -7 15 -15z"/>
<path d="M1140 175 c0 -43 1 -45 30 -45 17 0 30 4 30 9 0 5 -9 7 -20 4 -18 -5
-20 0 -20 36 0 22 -4 41 -10 41 -5 0 -10 -20 -10 -45z"/>
<path d="M1218 175 c-2 -31 1 -45 9 -45 9 0 13 16 13 45 0 25 -4 45 -9 45 -5
0 -11 -20 -13 -45z"/>
<path d="M1265 175 c0 -31 4 -45 14 -45 8 0 11 7 8 20 -3 11 -1 20 5 20 5 0
12 -9 15 -20 3 -11 12 -20 20 -20 13 0 13 4 -2 26 -16 24 -16 27 1 45 9 10 12
19 7 19 -6 0 -18 -10 -26 -22 l-16 -23 0 23 c-1 12 -7 22 -13 22 -9 0 -13 -16
-13 -45z"/>
<path d="M1390 175 c0 -25 5 -45 10 -45 6 0 10 20 10 45 0 25 -4 45 -10 45 -5
0 -10 -20 -10 -45z"/>
<path d="M1441 173 c2 -43 2 -45 8 -15 l6 34 18 -31 c10 -17 23 -29 28 -26 11
8 12 85 0 85 -4 0 -6 -11 -3 -25 2 -14 0 -25 -5 -25 -5 0 -15 11 -21 25 -18
40 -32 29 -31 -22z"/>
<path d="M1530 175 c0 -41 2 -45 24 -45 45 0 72 50 44 78 -17 17 -33 15 -18
-2 17 -21 9 -60 -14 -64 -16 -3 -18 1 -14 37 2 29 0 41 -9 41 -9 0 -13 -15
-13 -45z"/>
<path d="M1631 198 c-13 -36 2 -63 35 -63 27 0 29 3 29 39 0 24 -5 41 -13 44
-11 3 -12 0 -2 -17 13 -25 5 -61 -15 -61 -17 0 -26 39 -14 62 7 12 6 18 -1 18
-6 0 -14 -10 -19 -22z"/>
<path d="M1725 175 c0 -25 3 -45 8 -45 4 0 7 15 7 33 l0 32 22 -35 c11 -19 22
-30 24 -25 8 28 9 85 2 85 -4 0 -8 -12 -8 -27 l-1 -28 -15 28 c-22 41 -39 34
-39 -18z"/>
<path d="M1820 175 c0 -43 1 -45 30 -45 17 0 30 4 30 9 0 5 -9 7 -20 4 -14 -4
-20 0 -20 11 0 9 7 16 15 16 8 0 15 4 15 10 0 5 -7 7 -17 3 -13 -5 -15 -2 -11
15 4 15 2 22 -8 22 -10 0 -14 -13 -14 -45z"/>
<path d="M1865 210 c3 -5 8 -10 11 -10 2 0 4 5 4 10 0 6 -5 10 -11 10 -5 0 -7
-4 -4 -10z"/>
<path d="M1900 200 c0 -11 7 -23 15 -26 23 -9 19 -37 -5 -31 -11 3 -18 1 -14
-4 9 -15 44 -10 51 7 3 8 -4 25 -16 38 -12 12 -18 26 -14 29 3 4 1 7 -5 7 -7
0 -12 -9 -12 -20z"/>
<path d="M1935 210 c3 -5 8 -10 11 -10 2 0 4 5 4 10 0 6 -5 10 -11 10 -5 0 -7
-4 -4 -10z"/>
<path d="M1970 175 c0 -25 5 -45 10 -45 6 0 10 20 10 45 0 25 -4 45 -10 45 -5
0 -10 -20 -10 -45z"/>
<path d="M2028 175 c-10 -25 -13 -45 -8 -45 6 0 10 7 10 16 0 10 7 14 18 12 9
-2 16 -10 15 -16 -2 -7 4 -12 13 -12 16 0 15 9 -7 68 -13 33 -23 27 -41 -23z
m32 5 c0 -5 -4 -10 -10 -10 -5 0 -10 5 -10 10 0 6 5 10 10 10 6 0 10 -4 10
-10z"/>
</g>
</svg>
